<svg width="219" height="57" viewBox="0 0 219 57" fill="none" xmlns="http://www.w3.org/2000/svg">
<rect width="219" height="57" fill="white" fill-opacity="0.01"/>
<path d="M44.3789 50H42.5977L42.6094 49.0801H44.3789C44.9883 49.0801 45.4961 48.9531 45.9023 48.6992C46.3086 48.4414 46.6133 48.082 46.8164 47.6211C47.0234 47.1562 47.127 46.6133 47.127 45.9922V45.4707C47.127 44.9824 47.0684 44.5488 46.9512 44.1699C46.834 43.7871 46.6621 43.4648 46.4355 43.2031C46.209 42.9375 45.9316 42.7363 45.6035 42.5996C45.2793 42.4629 44.9062 42.3945 44.4844 42.3945H42.5625V41.4688H44.4844C45.043 41.4688 45.5527 41.5625 46.0137 41.75C46.4746 41.9336 46.8711 42.2012 47.2031 42.5527C47.5391 42.9004 47.7969 43.3223 47.9766 43.8184C48.1562 44.3105 48.2461 44.8652 48.2461 45.4824V45.9922C48.2461 46.6094 48.1562 47.166 47.9766 47.6621C47.7969 48.1543 47.5371 48.5742 47.1973 48.9219C46.8613 49.2695 46.4551 49.5371 45.9785 49.7246C45.5059 49.9082 44.9727 50 44.3789 50ZM43.2012 41.4688V50H42.0703V41.4688H43.2012ZM50.959 43.6602V50H49.8691V43.6602H50.959ZM49.7871 41.9785C49.7871 41.8027 49.8398 41.6543 49.9453 41.5332C50.0547 41.4121 50.2148 41.3516 50.4258 41.3516C50.6328 41.3516 50.791 41.4121 50.9004 41.5332C51.0137 41.6543 51.0703 41.8027 51.0703 41.9785C51.0703 42.1465 51.0137 42.291 50.9004 42.4121C50.791 42.5293 50.6328 42.5879 50.4258 42.5879C50.2148 42.5879 50.0547 42.5293 49.9453 42.4121C49.8398 42.291 49.7871 42.1465 49.7871 41.9785ZM56.8066 43.6602H57.791V49.8652C57.791 50.4238 57.6777 50.9004 57.4512 51.2949C57.2246 51.6895 56.9082 51.9883 56.502 52.1914C56.0996 52.3984 55.6348 52.502 55.1074 52.502C54.8887 52.502 54.6309 52.4668 54.334 52.3965C54.041 52.3301 53.752 52.2148 53.4668 52.0508C53.1855 51.8906 52.9492 51.6738 52.7578 51.4004L53.3262 50.7559C53.5918 51.0762 53.8691 51.2988 54.1582 51.4238C54.4512 51.5488 54.7402 51.6113 55.0254 51.6113C55.3691 51.6113 55.666 51.5469 55.916 51.418C56.166 51.2891 56.3594 51.0977 56.4961 50.8438C56.6367 50.5938 56.707 50.2852 56.707 49.918V45.0547L56.8066 43.6602ZM52.4414 46.9004V46.7773C52.4414 46.293 52.498 45.8535 52.6113 45.459C52.7285 45.0605 52.8945 44.7188 53.1094 44.4336C53.3281 44.1484 53.5918 43.9297 53.9004 43.7773C54.209 43.6211 54.5566 43.543 54.9434 43.543C55.3418 43.543 55.6895 43.6133 55.9863 43.7539C56.2871 43.8906 56.541 44.0918 56.748 44.3574C56.959 44.6191 57.125 44.9355 57.2461 45.3066C57.3672 45.6777 57.4512 46.0977 57.498 46.5664V47.1055C57.4551 47.5703 57.3711 47.9883 57.2461 48.3594C57.125 48.7305 56.959 49.0469 56.748 49.3086C56.541 49.5703 56.2871 49.7715 55.9863 49.9121C55.6855 50.0488 55.334 50.1172 54.9316 50.1172C54.5527 50.1172 54.209 50.0371 53.9004 49.877C53.5957 49.7168 53.334 49.4922 53.1152 49.2031C52.8965 48.9141 52.7285 48.5742 52.6113 48.1836C52.498 47.7891 52.4414 47.3613 52.4414 46.9004ZM53.5254 46.7773V46.9004C53.5254 47.2168 53.5566 47.5137 53.6191 47.791C53.6855 48.0684 53.7852 48.3125 53.918 48.5234C54.0547 48.7344 54.2285 48.9004 54.4395 49.0215C54.6504 49.1387 54.9023 49.1973 55.1953 49.1973C55.5547 49.1973 55.8516 49.1211 56.0859 48.9688C56.3203 48.8164 56.5059 48.6152 56.6426 48.3652C56.7832 48.1152 56.8926 47.8438 56.9707 47.5508V46.1387C56.9277 45.9238 56.8613 45.7168 56.7715 45.5176C56.6855 45.3145 56.5723 45.1348 56.4316 44.9785C56.2949 44.8184 56.125 44.6914 55.9219 44.5977C55.7188 44.5039 55.4805 44.457 55.207 44.457C54.9102 44.457 54.6543 44.5195 54.4395 44.6445C54.2285 44.7656 54.0547 44.9336 53.918 45.1484C53.7852 45.3594 53.6855 45.6055 53.6191 45.8867C53.5566 46.1641 53.5254 46.4609 53.5254 46.7773ZM60.6152 43.6602V50H59.5254V43.6602H60.6152ZM59.4434 41.9785C59.4434 41.8027 59.4961 41.6543 59.6016 41.5332C59.7109 41.4121 59.8711 41.3516 60.082 41.3516C60.2891 41.3516 60.4473 41.4121 60.5566 41.5332C60.6699 41.6543 60.7266 41.8027 60.7266 41.9785C60.7266 42.1465 60.6699 42.291 60.5566 42.4121C60.4473 42.5293 60.2891 42.5879 60.082 42.5879C59.8711 42.5879 59.7109 42.5293 59.6016 42.4121C59.4961 42.291 59.4434 42.1465 59.4434 41.9785ZM65.0098 43.6602V44.4922H61.582V43.6602H65.0098ZM62.7422 42.1191H63.8262V48.4297C63.8262 48.6445 63.8594 48.8066 63.9258 48.916C63.9922 49.0254 64.0781 49.0977 64.1836 49.1328C64.2891 49.168 64.4023 49.1855 64.5234 49.1855C64.6133 49.1855 64.707 49.1777 64.8047 49.1621C64.9062 49.1426 64.9824 49.127 65.0332 49.1152L65.0391 50C64.9531 50.0273 64.8398 50.0527 64.6992 50.0762C64.5625 50.1035 64.3965 50.1172 64.2012 50.1172C63.9355 50.1172 63.6914 50.0645 63.4688 49.959C63.2461 49.8535 63.0684 49.6777 62.9355 49.4316C62.8066 49.1816 62.7422 48.8457 62.7422 48.4238V42.1191ZM70.0195 48.916V45.6523C70.0195 45.4023 69.9688 45.1855 69.8672 45.002C69.7695 44.8145 69.6211 44.6699 69.4219 44.5684C69.2227 44.4668 68.9766 44.416 68.6836 44.416C68.4102 44.416 68.1699 44.4629 67.9629 44.5566C67.7598 44.6504 67.5996 44.7734 67.4824 44.9258C67.3691 45.0781 67.3125 45.2422 67.3125 45.418H66.2285C66.2285 45.1914 66.2871 44.9668 66.4043 44.7441C66.5215 44.5215 66.6895 44.3203 66.9082 44.1406C67.1309 43.957 67.3965 43.8125 67.7051 43.707C68.0176 43.5977 68.3652 43.543 68.748 43.543C69.209 43.543 69.6152 43.6211 69.9668 43.7773C70.3223 43.9336 70.5996 44.1699 70.7988 44.4863C71.002 44.7988 71.1035 45.1914 71.1035 45.6641V48.6172C71.1035 48.8281 71.1211 49.0527 71.1562 49.291C71.1953 49.5293 71.252 49.7344 71.3262 49.9062V50H70.1953C70.1406 49.875 70.0977 49.709 70.0664 49.502C70.0352 49.291 70.0195 49.0957 70.0195 48.916ZM70.207 46.1562L70.2188 46.918H69.123C68.8145 46.918 68.5391 46.9434 68.2969 46.9941C68.0547 47.041 67.8516 47.1133 67.6875 47.2109C67.5234 47.3086 67.3984 47.4316 67.3125 47.5801C67.2266 47.7246 67.1836 47.8945 67.1836 48.0898C67.1836 48.2891 67.2285 48.4707 67.3184 48.6348C67.4082 48.7988 67.543 48.9297 67.7227 49.0273C67.9062 49.1211 68.1309 49.168 68.3965 49.168C68.7285 49.168 69.0215 49.0977 69.2754 48.957C69.5293 48.8164 69.7305 48.6445 69.8789 48.4414C70.0312 48.2383 70.1133 48.041 70.125 47.8496L70.5879 48.3711C70.5605 48.5352 70.4863 48.7168 70.3652 48.916C70.2441 49.1152 70.082 49.3066 69.8789 49.4902C69.6797 49.6699 69.4414 49.8203 69.1641 49.9414C68.8906 50.0586 68.582 50.1172 68.2383 50.1172C67.8086 50.1172 67.4316 50.0332 67.1074 49.8652C66.7871 49.6973 66.5371 49.4727 66.3574 49.1914C66.1816 48.9062 66.0938 48.5879 66.0938 48.2363C66.0938 47.8965 66.1602 47.5977 66.293 47.3398C66.4258 47.0781 66.6172 46.8613 66.8672 46.6895C67.1172 46.5137 67.418 46.3809 67.7695 46.291C68.1211 46.2012 68.5137 46.1562 68.9473 46.1562H70.207ZM73.9863 41V50H72.8965V41H73.9863ZM79.998 41.4688V50H78.8672V41.4688H79.998ZM83.5723 45.3066V46.2324H79.752V45.3066H83.5723ZM84.1523 41.4688V42.3945H79.752V41.4688H84.1523ZM86.2676 44.6562V50H85.1836V43.6602H86.2383L86.2676 44.6562ZM88.248 43.625L88.2422 44.6328C88.1523 44.6133 88.0664 44.6016 87.9844 44.5977C87.9062 44.5898 87.8164 44.5859 87.7148 44.5859C87.4648 44.5859 87.2441 44.625 87.0527 44.7031C86.8613 44.7812 86.6992 44.8906 86.5664 45.0312C86.4336 45.1719 86.3281 45.3398 86.25 45.5352C86.1758 45.7266 86.127 45.9375 86.1035 46.168L85.7988 46.3438C85.7988 45.9609 85.8359 45.6016 85.9102 45.2656C85.9883 44.9297 86.1074 44.6328 86.2676 44.375C86.4277 44.1133 86.6309 43.9102 86.877 43.7656C87.127 43.6172 87.4238 43.543 87.7676 43.543C87.8457 43.543 87.9355 43.5527 88.0371 43.5723C88.1387 43.5879 88.209 43.6055 88.248 43.625ZM91.7637 50.1172C91.3223 50.1172 90.9219 50.043 90.5625 49.8945C90.207 49.7422 89.9004 49.5293 89.6426 49.2559C89.3887 48.9824 89.1934 48.6582 89.0566 48.2832C88.9199 47.9082 88.8516 47.498 88.8516 47.0527V46.8066C88.8516 46.291 88.9277 45.832 89.0801 45.4297C89.2324 45.0234 89.4395 44.6797 89.7012 44.3984C89.9629 44.1172 90.2598 43.9043 90.5918 43.7598C90.9238 43.6152 91.2676 43.543 91.623 43.543C92.0762 43.543 92.4668 43.6211 92.7949 43.7773C93.127 43.9336 93.3984 44.1523 93.6094 44.4336C93.8203 44.7109 93.9766 45.0391 94.0781 45.418C94.1797 45.793 94.2305 46.2031 94.2305 46.6484V47.1348H89.4961V46.25H93.1465V46.168C93.1309 45.8867 93.0723 45.6133 92.9707 45.3477C92.873 45.082 92.7168 44.8633 92.502 44.6914C92.2871 44.5195 91.9941 44.4336 91.623 44.4336C91.377 44.4336 91.1504 44.4863 90.9434 44.5918C90.7363 44.6934 90.5586 44.8457 90.4102 45.0488C90.2617 45.252 90.1465 45.5 90.0645 45.793C89.9824 46.0859 89.9414 46.4238 89.9414 46.8066V47.0527C89.9414 47.3535 89.9824 47.6367 90.0645 47.9023C90.1504 48.1641 90.2734 48.3945 90.4336 48.5938C90.5977 48.793 90.7949 48.9492 91.0254 49.0625C91.2598 49.1758 91.5254 49.2324 91.8223 49.2324C92.2051 49.2324 92.5293 49.1543 92.7949 48.998C93.0605 48.8418 93.293 48.6328 93.4922 48.3711L94.1484 48.8926C94.0117 49.0996 93.8379 49.2969 93.627 49.4844C93.416 49.6719 93.1562 49.8242 92.8477 49.9414C92.543 50.0586 92.1816 50.1172 91.7637 50.1172ZM96.6738 43.6602V50H95.584V43.6602H96.6738ZM95.502 41.9785C95.502 41.8027 95.5547 41.6543 95.6602 41.5332C95.7695 41.4121 95.9297 41.3516 96.1406 41.3516C96.3477 41.3516 96.5059 41.4121 96.6152 41.5332C96.7285 41.6543 96.7852 41.8027 96.7852 41.9785C96.7852 42.1465 96.7285 42.291 96.6152 42.4121C96.5059 42.5293 96.3477 42.5879 96.1406 42.5879C95.9297 42.5879 95.7695 42.5293 95.6602 42.4121C95.5547 42.291 95.502 42.1465 95.502 41.9785ZM102.521 43.6602H103.506V49.8652C103.506 50.4238 103.393 50.9004 103.166 51.2949C102.939 51.6895 102.623 51.9883 102.217 52.1914C101.814 52.3984 101.35 52.502 100.822 52.502C100.604 52.502 100.346 52.4668 100.049 52.3965C99.7559 52.3301 99.4668 52.2148 99.1816 52.0508C98.9004 51.8906 98.6641 51.6738 98.4727 51.4004L99.041 50.7559C99.3066 51.0762 99.584 51.2988 99.873 51.4238C100.166 51.5488 100.455 51.6113 100.74 51.6113C101.084 51.6113 101.381 51.5469 101.631 51.418C101.881 51.2891 102.074 51.0977 102.211 50.8438C102.352 50.5938 102.422 50.2852 102.422 49.918V45.0547L102.521 43.6602ZM98.1562 46.9004V46.7773C98.1562 46.293 98.2129 45.8535 98.3262 45.459C98.4434 45.0605 98.6094 44.7188 98.8242 44.4336C99.043 44.1484 99.3066 43.9297 99.6152 43.7773C99.9238 43.6211 100.271 43.543 100.658 43.543C101.057 43.543 101.404 43.6133 101.701 43.7539C102.002 43.8906 102.256 44.0918 102.463 44.3574C102.674 44.6191 102.84 44.9355 102.961 45.3066C103.082 45.6777 103.166 46.0977 103.213 46.5664V47.1055C103.17 47.5703 103.086 47.9883 102.961 48.3594C102.84 48.7305 102.674 49.0469 102.463 49.3086C102.256 49.5703 102.002 49.7715 101.701 49.9121C101.4 50.0488 101.049 50.1172 100.646 50.1172C100.268 50.1172 99.9238 50.0371 99.6152 49.877C99.3105 49.7168 99.0488 49.4922 98.8301 49.2031C98.6113 48.9141 98.4434 48.5742 98.3262 48.1836C98.2129 47.7891 98.1562 47.3613 98.1562 46.9004ZM99.2402 46.7773V46.9004C99.2402 47.2168 99.2715 47.5137 99.334 47.791C99.4004 48.0684 99.5 48.3125 99.6328 48.5234C99.7695 48.7344 99.9434 48.9004 100.154 49.0215C100.365 49.1387 100.617 49.1973 100.91 49.1973C101.27 49.1973 101.566 49.1211 101.801 48.9688C102.035 48.8164 102.221 48.6152 102.357 48.3652C102.498 48.1152 102.607 47.8438 102.686 47.5508V46.1387C102.643 45.9238 102.576 45.7168 102.486 45.5176C102.4 45.3145 102.287 45.1348 102.146 44.9785C102.01 44.8184 101.84 44.6914 101.637 44.5977C101.434 44.5039 101.195 44.457 100.922 44.457C100.625 44.457 100.369 44.5195 100.154 44.6445C99.9434 44.7656 99.7695 44.9336 99.6328 45.1484C99.5 45.3594 99.4004 45.6055 99.334 45.8867C99.2715 46.1641 99.2402 46.4609 99.2402 46.7773ZM106.236 41V50H105.152V41H106.236ZM105.979 46.5898L105.527 46.5723C105.531 46.1387 105.596 45.7383 105.721 45.3711C105.846 45 106.021 44.6777 106.248 44.4043C106.475 44.1309 106.744 43.9199 107.057 43.7715C107.373 43.6191 107.723 43.543 108.105 43.543C108.418 43.543 108.699 43.5859 108.949 43.6719C109.199 43.7539 109.412 43.8867 109.588 44.0703C109.768 44.2539 109.904 44.4922 109.998 44.7852C110.092 45.0742 110.139 45.4277 110.139 45.8457V50H109.049V45.834C109.049 45.502 109 45.2363 108.902 45.0371C108.805 44.834 108.662 44.6875 108.475 44.5977C108.287 44.5039 108.057 44.457 107.783 44.457C107.514 44.457 107.268 44.5137 107.045 44.627C106.826 44.7402 106.637 44.8965 106.477 45.0957C106.32 45.2949 106.197 45.5234 106.107 45.7812C106.021 46.0352 105.979 46.3047 105.979 46.5898ZM114.416 43.6602V44.4922H110.988V43.6602H114.416ZM112.148 42.1191H113.232V48.4297C113.232 48.6445 113.266 48.8066 113.332 48.916C113.398 49.0254 113.484 49.0977 113.59 49.1328C113.695 49.168 113.809 49.1855 113.93 49.1855C114.02 49.1855 114.113 49.1777 114.211 49.1621C114.312 49.1426 114.389 49.127 114.439 49.1152L114.445 50C114.359 50.0273 114.246 50.0527 114.105 50.0762C113.969 50.1035 113.803 50.1172 113.607 50.1172C113.342 50.1172 113.098 50.0645 112.875 49.959C112.652 49.8535 112.475 49.6777 112.342 49.4316C112.213 49.1816 112.148 48.8457 112.148 48.4238V42.1191ZM119.959 41.4688V50H118.828V41.4688H119.959ZM123.533 45.3066V46.2324H119.713V45.3066H123.533ZM124.113 41.4688V42.3945H119.713V41.4688H124.113ZM124.881 46.9004V46.7656C124.881 46.3086 124.947 45.8848 125.08 45.4941C125.213 45.0996 125.404 44.7578 125.654 44.4688C125.904 44.1758 126.207 43.9492 126.562 43.7891C126.918 43.625 127.316 43.543 127.758 43.543C128.203 43.543 128.604 43.625 128.959 43.7891C129.318 43.9492 129.623 44.1758 129.873 44.4688C130.127 44.7578 130.32 45.0996 130.453 45.4941C130.586 45.8848 130.652 46.3086 130.652 46.7656V46.9004C130.652 47.3574 130.586 47.7812 130.453 48.1719C130.32 48.5625 130.127 48.9043 129.873 49.1973C129.623 49.4863 129.32 49.7129 128.965 49.877C128.613 50.0371 128.215 50.1172 127.77 50.1172C127.324 50.1172 126.924 50.0371 126.568 49.877C126.213 49.7129 125.908 49.4863 125.654 49.1973C125.404 48.9043 125.213 48.5625 125.08 48.1719C124.947 47.7812 124.881 47.3574 124.881 46.9004ZM125.965 46.7656V46.9004C125.965 47.2168 126.002 47.5156 126.076 47.7969C126.15 48.0742 126.262 48.3203 126.41 48.5352C126.562 48.75 126.752 48.9199 126.979 49.0449C127.205 49.166 127.469 49.2266 127.77 49.2266C128.066 49.2266 128.326 49.166 128.549 49.0449C128.775 48.9199 128.963 48.75 129.111 48.5352C129.26 48.3203 129.371 48.0742 129.445 47.7969C129.523 47.5156 129.562 47.2168 129.562 46.9004V46.7656C129.562 46.4531 129.523 46.1582 129.445 45.8809C129.371 45.5996 129.258 45.3516 129.105 45.1367C128.957 44.918 128.77 44.7461 128.543 44.6211C128.32 44.4961 128.059 44.4336 127.758 44.4336C127.461 44.4336 127.199 44.4961 126.973 44.6211C126.75 44.7461 126.562 44.918 126.41 45.1367C126.262 45.3516 126.15 45.5996 126.076 45.8809C126.002 46.1582 125.965 46.4531 125.965 46.7656ZM133.096 44.6562V50H132.012V43.6602H133.066L133.096 44.6562ZM135.076 43.625L135.07 44.6328C134.98 44.6133 134.895 44.6016 134.812 44.5977C134.734 44.5898 134.645 44.5859 134.543 44.5859C134.293 44.5859 134.072 44.625 133.881 44.7031C133.689 44.7812 133.527 44.8906 133.395 45.0312C133.262 45.1719 133.156 45.3398 133.078 45.5352C133.004 45.7266 132.955 45.9375 132.932 46.168L132.627 46.3438C132.627 45.9609 132.664 45.6016 132.738 45.2656C132.816 44.9297 132.936 44.6328 133.096 44.375C133.256 44.1133 133.459 43.9102 133.705 43.7656C133.955 43.6172 134.252 43.543 134.596 43.543C134.674 43.543 134.764 43.5527 134.865 43.5723C134.967 43.5879 135.037 43.6055 135.076 43.625ZM137.789 48.875L139.418 43.6602H140.133L139.992 44.6973L138.334 50H137.637L137.789 48.875ZM136.693 43.6602L138.082 48.9336L138.182 50H137.449L135.609 43.6602H136.693ZM141.691 48.8926L143.016 43.6602H144.094L142.254 50H141.527L141.691 48.8926ZM140.291 43.6602L141.885 48.7871L142.066 50H141.375L139.67 44.6855L139.529 43.6602H140.291ZM148.945 48.916V45.6523C148.945 45.4023 148.895 45.1855 148.793 45.002C148.695 44.8145 148.547 44.6699 148.348 44.5684C148.148 44.4668 147.902 44.416 147.609 44.416C147.336 44.416 147.096 44.4629 146.889 44.5566C146.686 44.6504 146.525 44.7734 146.408 44.9258C146.295 45.0781 146.238 45.2422 146.238 45.418H145.154C145.154 45.1914 145.213 44.9668 145.33 44.7441C145.447 44.5215 145.615 44.3203 145.834 44.1406C146.057 43.957 146.322 43.8125 146.631 43.707C146.943 43.5977 147.291 43.543 147.674 43.543C148.135 43.543 148.541 43.6211 148.893 43.7773C149.248 43.9336 149.525 44.1699 149.725 44.4863C149.928 44.7988 150.029 45.1914 150.029 45.6641V48.6172C150.029 48.8281 150.047 49.0527 150.082 49.291C150.121 49.5293 150.178 49.7344 150.252 49.9062V50H149.121C149.066 49.875 149.023 49.709 148.992 49.502C148.961 49.291 148.945 49.0957 148.945 48.916ZM149.133 46.1562L149.145 46.918H148.049C147.74 46.918 147.465 46.9434 147.223 46.9941C146.98 47.041 146.777 47.1133 146.613 47.2109C146.449 47.3086 146.324 47.4316 146.238 47.5801C146.152 47.7246 146.109 47.8945 146.109 48.0898C146.109 48.2891 146.154 48.4707 146.244 48.6348C146.334 48.7988 146.469 48.9297 146.648 49.0273C146.832 49.1211 147.057 49.168 147.322 49.168C147.654 49.168 147.947 49.0977 148.201 48.957C148.455 48.8164 148.656 48.6445 148.805 48.4414C148.957 48.2383 149.039 48.041 149.051 47.8496L149.514 48.3711C149.486 48.5352 149.412 48.7168 149.291 48.916C149.17 49.1152 149.008 49.3066 148.805 49.4902C148.605 49.6699 148.367 49.8203 148.09 49.9414C147.816 50.0586 147.508 50.1172 147.164 50.1172C146.734 50.1172 146.357 50.0332 146.033 49.8652C145.713 49.6973 145.463 49.4727 145.283 49.1914C145.107 48.9062 145.02 48.5879 145.02 48.2363C145.02 47.8965 145.086 47.5977 145.219 47.3398C145.352 47.0781 145.543 46.8613 145.793 46.6895C146.043 46.5137 146.344 46.3809 146.695 46.291C147.047 46.2012 147.439 46.1562 147.873 46.1562H149.133ZM152.818 44.6562V50H151.734V43.6602H152.789L152.818 44.6562ZM154.799 43.625L154.793 44.6328C154.703 44.6133 154.617 44.6016 154.535 44.5977C154.457 44.5898 154.367 44.5859 154.266 44.5859C154.016 44.5859 153.795 44.625 153.604 44.7031C153.412 44.7812 153.25 44.8906 153.117 45.0312C152.984 45.1719 152.879 45.3398 152.801 45.5352C152.727 45.7266 152.678 45.9375 152.654 46.168L152.35 46.3438C152.35 45.9609 152.387 45.6016 152.461 45.2656C152.539 44.9297 152.658 44.6328 152.818 44.375C152.979 44.1133 153.182 43.9102 153.428 43.7656C153.678 43.6172 153.975 43.543 154.318 43.543C154.396 43.543 154.486 43.5527 154.588 43.5723C154.689 43.5879 154.76 43.6055 154.799 43.625ZM159.68 48.7695V41H160.77V50H159.773L159.68 48.7695ZM155.414 46.9004V46.7773C155.414 46.293 155.473 45.8535 155.59 45.459C155.711 45.0605 155.881 44.7188 156.1 44.4336C156.322 44.1484 156.586 43.9297 156.891 43.7773C157.199 43.6211 157.543 43.543 157.922 43.543C158.32 43.543 158.668 43.6133 158.965 43.7539C159.266 43.8906 159.52 44.0918 159.727 44.3574C159.938 44.6191 160.104 44.9355 160.225 45.3066C160.346 45.6777 160.43 46.0977 160.477 46.5664V47.1055C160.434 47.5703 160.35 47.9883 160.225 48.3594C160.104 48.7305 159.938 49.0469 159.727 49.3086C159.52 49.5703 159.266 49.7715 158.965 49.9121C158.664 50.0488 158.312 50.1172 157.91 50.1172C157.539 50.1172 157.199 50.0371 156.891 49.877C156.586 49.7168 156.322 49.4922 156.1 49.2031C155.881 48.9141 155.711 48.5742 155.59 48.1836C155.473 47.7891 155.414 47.3613 155.414 46.9004ZM156.504 46.7773V46.9004C156.504 47.2168 156.535 47.5137 156.598 47.791C156.664 48.0684 156.766 48.3125 156.902 48.5234C157.039 48.7344 157.213 48.9004 157.424 49.0215C157.635 49.1387 157.887 49.1973 158.18 49.1973C158.539 49.1973 158.834 49.1211 159.064 48.9688C159.299 48.8164 159.486 48.6152 159.627 48.3652C159.768 48.1152 159.877 47.8438 159.955 47.5508V46.1387C159.908 45.9238 159.84 45.7168 159.75 45.5176C159.664 45.3145 159.551 45.1348 159.41 44.9785C159.273 44.8184 159.104 44.6914 158.9 44.5977C158.701 44.5039 158.465 44.457 158.191 44.457C157.895 44.457 157.639 44.5195 157.424 44.6445C157.213 44.7656 157.039 44.9336 156.902 45.1484C156.766 45.3594 156.664 45.6055 156.598 45.8867C156.535 46.1641 156.504 46.4609 156.504 46.7773ZM163.635 43.6602V50H162.545V43.6602H163.635ZM162.463 41.9785C162.463 41.8027 162.516 41.6543 162.621 41.5332C162.73 41.4121 162.891 41.3516 163.102 41.3516C163.309 41.3516 163.467 41.4121 163.576 41.5332C163.689 41.6543 163.746 41.8027 163.746 41.9785C163.746 42.1465 163.689 42.291 163.576 42.4121C163.467 42.5293 163.309 42.5879 163.102 42.5879C162.891 42.5879 162.73 42.5293 162.621 42.4121C162.516 42.291 162.463 42.1465 162.463 41.9785ZM166.459 45.0137V50H165.375V43.6602H166.4L166.459 45.0137ZM166.201 46.5898L165.75 46.5723C165.754 46.1387 165.818 45.7383 165.943 45.3711C166.068 45 166.244 44.6777 166.471 44.4043C166.697 44.1309 166.967 43.9199 167.279 43.7715C167.596 43.6191 167.945 43.543 168.328 43.543C168.641 43.543 168.922 43.5859 169.172 43.6719C169.422 43.7539 169.635 43.8867 169.811 44.0703C169.99 44.2539 170.127 44.4922 170.221 44.7852C170.314 45.0742 170.361 45.4277 170.361 45.8457V50H169.271V45.834C169.271 45.502 169.223 45.2363 169.125 45.0371C169.027 44.834 168.885 44.6875 168.697 44.5977C168.51 44.5039 168.279 44.457 168.006 44.457C167.736 44.457 167.49 44.5137 167.268 44.627C167.049 44.7402 166.859 44.8965 166.699 45.0957C166.543 45.2949 166.42 45.5234 166.33 45.7812C166.244 46.0352 166.201 46.3047 166.201 46.5898ZM176.115 43.6602H177.1V49.8652C177.1 50.4238 176.986 50.9004 176.76 51.2949C176.533 51.6895 176.217 51.9883 175.811 52.1914C175.408 52.3984 174.943 52.502 174.416 52.502C174.197 52.502 173.939 52.4668 173.643 52.3965C173.35 52.3301 173.061 52.2148 172.775 52.0508C172.494 51.8906 172.258 51.6738 172.066 51.4004L172.635 50.7559C172.9 51.0762 173.178 51.2988 173.467 51.4238C173.76 51.5488 174.049 51.6113 174.334 51.6113C174.678 51.6113 174.975 51.5469 175.225 51.418C175.475 51.2891 175.668 51.0977 175.805 50.8438C175.945 50.5938 176.016 50.2852 176.016 49.918V45.0547L176.115 43.6602ZM171.75 46.9004V46.7773C171.75 46.293 171.807 45.8535 171.92 45.459C172.037 45.0605 172.203 44.7188 172.418 44.4336C172.637 44.1484 172.9 43.9297 173.209 43.7773C173.518 43.6211 173.865 43.543 174.252 43.543C174.65 43.543 174.998 43.6133 175.295 43.7539C175.596 43.8906 175.85 44.0918 176.057 44.3574C176.268 44.6191 176.434 44.9355 176.555 45.3066C176.676 45.6777 176.76 46.0977 176.807 46.5664V47.1055C176.764 47.5703 176.68 47.9883 176.555 48.3594C176.434 48.7305 176.268 49.0469 176.057 49.3086C175.85 49.5703 175.596 49.7715 175.295 49.9121C174.994 50.0488 174.643 50.1172 174.24 50.1172C173.861 50.1172 173.518 50.0371 173.209 49.877C172.904 49.7168 172.643 49.4922 172.424 49.2031C172.205 48.9141 172.037 48.5742 171.92 48.1836C171.807 47.7891 171.75 47.3613 171.75 46.9004ZM172.834 46.7773V46.9004C172.834 47.2168 172.865 47.5137 172.928 47.791C172.994 48.0684 173.094 48.3125 173.227 48.5234C173.363 48.7344 173.537 48.9004 173.748 49.0215C173.959 49.1387 174.211 49.1973 174.504 49.1973C174.863 49.1973 175.16 49.1211 175.395 48.9688C175.629 48.8164 175.814 48.6152 175.951 48.3652C176.092 48.1152 176.201 47.8438 176.279 47.5508V46.1387C176.236 45.9238 176.17 45.7168 176.08 45.5176C175.994 45.3145 175.881 45.1348 175.74 44.9785C175.604 44.8184 175.434 44.6914 175.23 44.5977C175.027 44.5039 174.789 44.457 174.516 44.457C174.219 44.457 173.963 44.5195 173.748 44.6445C173.537 44.7656 173.363 44.9336 173.227 45.1484C173.094 45.3594 172.994 45.6055 172.928 45.8867C172.865 46.1641 172.834 46.4609 172.834 46.7773Z" fill="#66A2CC"/>
<path fill-rule="evenodd" clip-rule="evenodd" d="M179.258 15.4163H172.783V7.51758C172.783 7.51758 170.918 7.51758 169.985 7.51758C167.355 7.51758 165.223 9.44664 165.223 11.8259C165.223 17.5705 165.223 29.0594 165.223 29.0594H172.783V19.7623H179.258V29.0594H186.818V7.51758H179.258V15.4163" fill="#121322"/>
<path fill-rule="evenodd" clip-rule="evenodd" d="M64.5151 11.8259C64.5151 17.5705 64.5151 23.3149 64.5151 29.0594C67.0213 29.0594 69.5276 29.0594 72.034 29.0594C72.034 26.2375 72.034 23.4155 72.034 20.5937C74.6653 20.5937 77.297 20.5937 79.9285 20.5937C79.9285 19.2207 79.9285 17.8477 79.9285 16.4746C77.297 16.4746 74.6653 16.4746 72.034 16.4746C72.034 15.0509 72.034 13.6275 72.034 12.204C75.2223 12.204 78.4108 12.204 81.5993 12.204C81.5993 10.6418 81.5993 9.0797 81.5993 7.51758C77.4919 7.51758 73.3844 7.51758 69.277 7.51758C66.6471 7.51758 64.5151 9.44664 64.5151 11.8259" fill="#121322"/>
<path fill-rule="evenodd" clip-rule="evenodd" d="M108.917 11.8259C108.917 17.5705 108.917 23.3149 108.917 29.0594C114.682 29.0594 120.446 29.0594 126.21 29.0594C126.21 27.5225 126.21 25.9855 126.21 24.4486C122.952 24.4486 119.694 24.4486 116.436 24.4486C116.436 22.9872 116.436 21.5259 116.436 20.0648C119.193 20.0648 121.95 20.0648 124.707 20.0648C124.707 18.7042 124.707 17.3437 124.707 15.9832C121.95 15.9832 119.193 15.9832 116.436 15.9832C116.436 14.6731 116.436 13.363 116.436 12.0528C119.708 12.0528 122.98 12.0528 126.252 12.0528C126.252 10.5411 126.252 9.0294 126.252 7.51758C122.061 7.51758 117.87 7.51758 113.679 7.51758C111.049 7.51758 108.917 9.44664 108.917 11.8259" fill="#121322"/>
<path fill-rule="evenodd" clip-rule="evenodd" d="M189.282 7.51758V12.2417C189.282 12.2417 194.887 12.2417 196.007 12.2417C196.007 15.0447 196.007 29.0594 196.007 29.0594C196.007 29.0594 197.845 29.0594 198.764 29.0594C201.394 29.0594 203.526 27.1303 203.526 24.751C203.526 23.3842 203.526 12.2417 203.526 12.2417H210.251V7.51758H189.282" fill="#121322"/>
<path fill-rule="evenodd" clip-rule="evenodd" d="M129.426 11.8259C129.426 17.5705 129.426 23.3149 129.426 29.0594C131.932 29.0594 134.438 29.0594 136.944 29.0594C136.944 21.8787 136.944 14.6982 136.944 7.51758C136.026 7.51758 135.106 7.51758 134.188 7.51758C131.558 7.51758 129.426 9.44664 129.426 11.8259" fill="#121322"/>
<path fill-rule="evenodd" clip-rule="evenodd" d="M53.552 21.9181C53.552 23.2739 52.3369 24.3732 50.8384 24.3732C49.299 24.3732 47.7595 24.3732 46.2202 24.3732C46.2202 20.1909 46.2202 16.0085 46.2202 11.8262C47.2167 11.8262 48.2131 11.8262 49.2096 11.8262C51.6079 11.8262 53.552 13.5852 53.552 15.7552C53.552 17.8095 53.552 19.8637 53.552 21.9181ZM52.0712 7.51758C47.6146 7.51758 43.1582 7.51758 38.7017 7.51758C38.7017 14.6982 38.7017 21.8787 38.7017 29.0594C43.0127 29.0594 47.3237 29.0594 51.6348 29.0594C54.2867 29.0594 56.83 28.1062 58.7051 26.4097C60.5802 24.7133 61.6337 22.4122 61.6337 20.013C61.6337 18.7319 61.6337 17.4506 61.6337 16.1693C61.6337 13.8748 60.6262 11.6742 58.8329 10.0516C57.0395 8.42915 54.6073 7.51758 52.0712 7.51758V7.51758Z" fill="#121322"/>
<mask id="mask0_261_40275" style="mask-type:alpha" maskUnits="userSpaceOnUse" x="84" y="7" width="78" height="23">
<path fill-rule="evenodd" clip-rule="evenodd" d="M84.8574 7.23828H161.966V29.4232H84.8574V7.23828Z" fill="white"/>
</mask>
<g mask="url(#mask0_261_40275)">
<path fill-rule="evenodd" clip-rule="evenodd" d="M97.7645 15.0593C97.7645 16.0076 96.9149 16.7762 95.8669 16.7762H92.042V11.5986H95.4401C96.7239 11.5986 97.7645 12.5402 97.7645 13.7017V15.0593ZM101.025 19.02H100.73V19.0066H101.303C103.709 19.0066 105.659 17.242 105.659 15.0653V12.7664C105.659 9.86772 103.062 7.51769 99.8579 7.51758H89.6191C86.9894 7.51758 84.8574 9.44664 84.8574 11.8259V29.0594H92.3761V21.0473C93.7076 21.0473 94.755 21.0375 95.519 21.0176C96.1112 21.0022 96.6339 21.3656 96.7701 21.8876C97.394 24.2781 98.0179 26.6687 98.6417 29.0594H106.536C105.792 26.4772 105.049 23.895 104.305 21.3129C103.916 19.9622 102.568 19.02 101.025 19.02V19.02Z" fill="#121322"/>
<path fill-rule="evenodd" clip-rule="evenodd" d="M154.614 24.4494H152.475C150.294 24.4494 148.525 22.849 148.525 20.8751V14.1949C148.525 13.2413 149.379 12.4682 150.434 12.4682H160.462L160.964 8.12184C156.612 6.97616 151.996 6.94405 147.626 8.02903C144.975 8.68716 142.795 10.3924 141.69 12.67C139.975 16.2108 139.841 20.215 141.317 23.8433C142.157 25.9059 143.961 27.5275 146.246 28.273C151.352 29.9388 156.966 29.8015 161.966 27.8887V17.117H154.614V24.4494" fill="#121322"/>
</g>
<path fill-rule="evenodd" clip-rule="evenodd" d="M24.3897 29.0468C26.5163 28.9223 28.4441 27.8724 29.5612 26.2304C30.6784 24.5885 30.8462 22.5583 30.0113 20.7844L29.8608 20.4848C28.8683 18.5817 27.5251 16.8452 25.8885 15.3498L17.2319 7.51758H23.951C28.2903 7.51758 31.808 10.7003 31.808 14.6263V21.9504C31.808 25.7223 28.5521 28.837 24.3897 29.0469" fill="#5298C6"/>
<path fill-rule="evenodd" clip-rule="evenodd" d="M11.6835 7.98523L22.0254 17.3421C22.603 17.8647 22.603 18.7121 22.0254 19.2347L11.6835 28.5916C11.3525 28.8911 10.9038 29.0593 10.4357 29.0593H8V7.51758H10.4357C10.9038 7.51758 11.3525 7.68578 11.6835 7.98523" fill="#1B5B96"/>
<path fill-rule="evenodd" clip-rule="evenodd" d="M29.8608 20.4856C28.8683 18.5824 27.525 16.846 25.8884 15.3506C27.6539 17.0207 27.6214 19.6609 25.8153 21.2949L17.2329 29.0601H23.9652C26.1714 29.0601 28.2305 28.0584 29.447 26.3932C30.6637 24.7281 30.8756 22.6218 30.0112 20.7852L29.8608 20.4856" fill="#121322"/>
</svg>
